<?xml version="1.0" standalone="no"?>
<!DOCTYPE svg PUBLIC "-//W3C//DTD SVG 20010904//EN"
 "http://www.w3.org/TR/2001/REC-SVG-20010904/DTD/svg10.dtd">
<svg version="1.0" xmlns="http://www.w3.org/2000/svg"
 width="1280.000000pt" height="997.000000pt" viewBox="0 0 1280.000000 997.000000"
 preserveAspectRatio="xMidYMid meet">
<metadata>
Created by potrace 1.15, written by Peter Selinger 2001-2017
</metadata>
<g transform="translate(0.000000,997.000000) scale(0.100000,-0.100000)"
fill="#000000" stroke="none">
<path d="M2745 9958 c-36 -20 -65 -51 -65 -70 0 -13 15 -26 48 -40 74 -32 110
-65 142 -127 16 -34 68 -101 120 -156 100 -108 162 -197 186 -265 8 -25 38
-92 65 -150 27 -58 54 -125 60 -150 5 -25 28 -90 49 -145 47 -123 85 -246 95
-303 6 -39 4 -47 -21 -73 -25 -27 -27 -31 -16 -67 15 -49 320 -559 407 -681
37 -52 72 -111 76 -132 11 -46 -2 -117 -34 -196 -13 -33 -30 -84 -37 -114 -30
-133 -25 -124 -93 -154 -219 -98 -682 -401 -927 -607 -41 -35 -71 -58 -67 -52
11 18 -52 74 -118 105 -67 32 -183 59 -251 59 -25 0 -71 -9 -103 -20 -32 -11
-78 -22 -102 -26 -69 -9 -110 -24 -162 -56 -54 -34 -70 -34 -162 6 -76 32
-106 32 -144 0 -26 -22 -29 -29 -20 -46 6 -11 29 -28 51 -38 l40 -18 -35 -38
-34 -38 -53 17 c-29 9 -78 17 -109 17 l-56 -1 68 -62 c37 -34 67 -68 67 -75 0
-7 -11 -29 -24 -50 -143 -228 -217 -545 -203 -884 l5 -138 -51 -27 c-28 -16
-55 -35 -61 -45 -16 -26 19 -89 85 -153 58 -57 65 -78 28 -90 -37 -12 -49 -33
-37 -65 12 -36 41 -53 128 -75 36 -9 78 -21 93 -27 24 -9 31 -8 52 12 23 21
26 22 48 7 31 -20 84 -73 104 -104 21 -32 144 -89 223 -103 36 -7 124 -12 196
-11 l132 1 46 -92 c25 -51 84 -147 131 -212 104 -145 305 -463 305 -484 0 -8
-27 -78 -60 -156 -80 -189 -92 -240 -77 -312 l12 -57 -45 -38 c-25 -22 -106
-71 -180 -111 -325 -172 -651 -350 -725 -394 -44 -26 -112 -65 -151 -86 -78
-41 -134 -92 -134 -120 0 -23 1 -23 58 9 29 16 55 24 65 20 16 -6 16 -9 2 -37
-26 -50 -253 -191 -425 -263 -308 -129 -794 -258 -968 -257 -48 1 -62 5 -92
30 -44 38 -77 39 -86 4 -11 -43 7 -77 51 -97 110 -49 114 -57 56 -120 -39 -42
-53 -77 -31 -77 6 0 42 16 80 35 38 19 142 56 232 81 392 110 685 208 840 280
64 30 144 60 178 66 57 11 64 10 76 -7 8 -10 14 -30 14 -43 0 -27 17 -62 30
-62 5 0 21 21 36 48 52 92 79 125 129 158 39 27 60 34 96 34 26 0 51 -6 56
-12 11 -14 24 -53 43 -126 10 -40 13 -43 28 -29 10 9 28 46 42 83 30 81 82
140 164 189 81 48 113 47 161 -6 20 -22 38 -39 40 -37 1 1 9 17 18 33 20 39
117 149 357 405 106 113 211 227 233 255 46 58 56 65 118 88 58 22 84 50 134
145 39 74 41 77 75 76 60 -2 294 -102 610 -262 168 -85 330 -169 361 -188 31
-19 68 -34 81 -34 14 0 37 -9 52 -21 25 -19 26 -25 26 -107 l-1 -87 -25 50
c-32 62 -48 79 -68 72 -23 -9 -20 -64 9 -182 37 -152 69 -243 118 -341 25 -49
57 -118 72 -154 32 -78 154 -306 238 -445 170 -283 255 -395 497 -650 52 -55
124 -134 159 -175 l64 -74 -7 54 c-4 30 -9 70 -13 89 l-6 34 119 -7 c164 -10
240 -29 306 -75 29 -21 78 -51 108 -66 30 -15 95 -57 145 -93 49 -35 125 -82
167 -103 43 -21 124 -67 180 -101 124 -74 512 -269 659 -331 58 -25 158 -62
223 -83 110 -35 121 -37 165 -26 72 19 187 79 216 114 36 43 19 56 -36 27 -37
-19 -60 -23 -144 -23 -119 -1 -150 12 -188 77 -45 77 -97 96 -327 122 -82 9
-162 24 -185 34 -60 26 -103 83 -96 125 6 30 -15 46 -92 72 -112 36 -205 81
-217 105 -6 10 -8 35 -4 53 7 42 -4 50 -102 67 -132 22 -250 86 -261 139 -5
26 -11 30 -62 40 -174 33 -241 87 -241 194 0 41 -1 42 -128 56 -84 9 -173 33
-215 56 -21 12 -277 282 -277 293 0 4 -29 45 -65 90 -72 92 -285 405 -334 492
-17 31 -31 63 -31 71 0 8 13 32 29 52 40 50 46 98 26 202 -28 140 -22 141 320
35 232 -72 280 -80 518 -89 187 -7 187 -7 213 -35 27 -30 68 -35 123 -16 30
11 34 9 74 -33 59 -62 104 -97 337 -258 207 -144 328 -235 409 -307 40 -35 43
-41 31 -60 -17 -26 -2 -45 115 -153 147 -135 236 -192 315 -205 54 -8 374
-145 517 -221 56 -30 108 -54 115 -54 7 0 69 -27 138 -60 70 -33 155 -67 191
-76 35 -9 87 -27 115 -40 28 -13 75 -29 105 -34 34 -7 87 -30 145 -65 116 -69
128 -72 204 -44 59 21 67 22 168 10 126 -14 255 -44 333 -77 57 -24 117 -35
269 -53 47 -6 102 -13 123 -17 50 -9 49 11 -3 66 -41 42 -67 106 -57 135 10
24 86 55 137 55 54 0 204 -32 440 -93 96 -25 211 -48 255 -52 44 -4 127 -16
185 -26 95 -18 135 -19 410 -13 206 4 326 11 370 20 110 24 283 84 330 114 85
54 170 160 170 211 0 44 -26 36 -105 -32 -38 -33 -88 -69 -110 -80 -57 -26
-132 -25 -192 5 -85 42 -106 42 -192 2 -111 -52 -229 -80 -315 -73 -64 4 -72
7 -96 37 -25 30 -30 32 -71 26 -24 -3 -89 -9 -144 -12 l-100 -6 -55 41 c-38
29 -61 40 -75 36 -11 -3 -48 -9 -82 -12 -84 -8 -154 17 -211 76 l-43 44 -130
-8 -129 -7 -80 78 c-44 43 -80 82 -80 87 0 5 25 36 55 69 95 102 150 198 115
198 -31 0 -111 -55 -275 -189 -55 -45 -119 -91 -141 -102 -61 -29 -148 -33
-339 -16 -93 9 -219 19 -280 22 -177 10 -246 22 -331 58 -43 19 -125 46 -182
61 -56 14 -128 38 -160 52 -88 40 -122 51 -338 114 -286 83 -263 70 -319 187
-61 128 -64 145 -31 162 21 12 62 12 243 2 843 -44 1105 -39 1389 29 49 11
132 23 185 25 109 4 190 23 305 70 105 44 240 79 394 105 216 35 329 86 458
205 169 156 314 375 573 860 35 65 101 175 146 242 l83 124 -10 347 c-12 409
-22 543 -56 712 -39 198 -112 469 -144 539 -17 35 -30 70 -30 77 0 8 -8 18
-17 21 -9 4 -43 33 -74 64 -62 62 -142 109 -184 109 -16 0 -35 12 -52 32 -192
221 -345 376 -438 446 -59 44 -75 51 -101 46 -24 -4 -62 7 -157 46 -133 55
-132 54 -240 184 -22 26 -62 58 -90 73 -29 14 -76 43 -106 64 -65 47 -86 49
-106 9 -20 -39 -39 -38 -162 4 -233 80 -277 104 -306 163 -24 51 -24 51 -164
114 -77 35 -95 40 -108 29 -9 -7 -17 -11 -18 -9 -2 2 -14 19 -27 38 l-23 33
23 -7 c17 -5 40 5 104 48 44 31 101 76 125 101 36 36 47 43 65 36 11 -5 197
-66 411 -136 383 -125 394 -129 635 -250 135 -68 294 -152 353 -188 129 -77
290 -196 313 -232 10 -14 39 -98 66 -187 80 -263 113 -336 140 -309 9 9 9 51
-4 190 -16 174 -16 178 -57 257 -43 84 -81 209 -68 222 5 4 43 -30 86 -75 69
-74 81 -82 104 -77 19 5 39 0 70 -18 54 -32 189 -141 241 -196 l40 -41 29 35
c47 58 88 46 244 -72 106 -80 99 -78 134 -49 17 14 36 26 43 26 7 0 40 -13 73
-30 57 -28 155 -119 195 -180 l16 -25 11 27 c5 15 22 35 37 44 25 17 28 17 71
-6 24 -13 71 -55 105 -94 34 -39 73 -82 88 -96 15 -14 39 -42 54 -63 33 -45
62 -61 152 -83 124 -31 203 -135 226 -294 6 -44 15 -80 20 -80 15 0 37 65 44
132 12 117 -38 228 -138 310 -76 62 -177 130 -503 340 -176 114 -356 232 -400
264 -90 65 -208 126 -275 144 -25 7 -70 27 -101 45 -73 43 -133 69 -205 90
-115 33 -244 112 -244 149 0 17 7 19 122 35 88 12 158 37 158 57 0 7 -19 18
-42 24 -24 6 -131 39 -238 75 -107 35 -242 73 -299 85 -105 21 -182 53 -213
87 -10 11 -31 46 -48 79 -16 32 -43 76 -61 97 l-31 37 -129 -1 -130 -1 -67 41
c-63 38 -73 41 -182 50 -104 9 -125 14 -217 55 -59 26 -129 67 -165 96 -81 66
-179 103 -358 135 -78 14 -170 37 -203 51 -49 21 -86 27 -207 35 -99 6 -170
16 -216 30 -46 14 -112 23 -204 28 -106 6 -143 12 -175 28 -50 26 -100 40
-193 53 -63 9 -117 28 -305 107 -54 23 -66 49 -36 78 13 13 41 32 62 43 35 18
36 20 15 26 -13 3 -57 6 -99 6 -154 0 -342 20 -382 41 -21 10 -57 19 -80 19
-89 0 -354 -49 -477 -89 -264 -84 -504 -172 -581 -213 -102 -54 -195 -130
-217 -176 -14 -31 -33 -45 -123 -92 -123 -64 -137 -74 -169 -117 -13 -18 -30
-33 -37 -33 -8 0 -23 21 -34 48 -11 26 -27 55 -36 64 -8 9 -12 21 -9 27 9 13
-412 14 -559 1 -176 -16 -399 -22 -414 -12 -7 5 -17 31 -22 57 -5 26 -29 91
-53 144 -30 65 -46 117 -51 161 -14 127 -145 622 -185 699 -10 20 -43 58 -74
84 -69 59 -97 111 -103 191 -10 144 -15 149 -88 86 -25 -22 -52 -40 -60 -40
-19 0 -74 60 -81 88 -7 25 0 125 11 160 10 32 -24 30 -65 -4 -30 -26 -31 -26
-51 -8 -11 10 -33 63 -50 118 -37 119 -120 267 -192 341 -61 64 -139 218 -172
344 -14 51 -34 105 -44 120 -34 48 -172 172 -207 187 -40 17 -91 18 -119 2z
m4330 -2504 c195 -34 234 -49 324 -129 81 -71 91 -71 91 1 0 51 16 66 79 72
69 6 142 -18 256 -87 55 -34 105 -61 110 -61 6 0 19 10 29 21 16 19 25 21 73
15 31 -4 102 -24 157 -46 110 -43 137 -47 176 -25 31 18 104 19 117 3 6 -7 13
-45 17 -84 6 -68 5 -71 -23 -98 -15 -15 -49 -33 -75 -41 -105 -32 -144 -29
-486 29 -599 102 -770 119 -1140 115 l-265 -3 -135 51 c-74 28 -150 54 -167
58 -45 9 -48 20 -17 60 52 69 158 105 434 150 190 30 264 30 445 -1z m4114
-6691 c23 -19 -100 -43 -154 -29 -39 10 -25 30 26 36 42 5 119 1 128 -7z"/>
</g>
</svg>
