<?xml version="1.0" standalone="no"?>
<!DOCTYPE svg PUBLIC "-//W3C//DTD SVG 20010904//EN"
 "http://www.w3.org/TR/2001/REC-SVG-20010904/DTD/svg10.dtd">
<svg version="1.0" xmlns="http://www.w3.org/2000/svg"
 width="1280.000000pt" height="1124.000000pt" viewBox="0 0 1280.000000 1124.000000"
 preserveAspectRatio="xMidYMid meet">
<metadata>
Created by potrace 1.15, written by Peter Selinger 2001-2017
</metadata>
<g transform="translate(0.000000,1124.000000) scale(0.100000,-0.100000)"
fill="#000000" stroke="none">
<path d="M5645 11193 c-120 -62 -171 -64 -266 -10 -50 28 -68 34 -77 25 -20
-20 -14 -34 34 -90 79 -92 118 -196 116 -313 -1 -95 -18 -144 -62 -172 -84
-54 -83 -52 -77 -100 4 -37 2 -43 -12 -39 -26 8 -222 34 -391 53 -197 22 -900
25 -1080 5 -579 -65 -1055 -191 -1585 -422 -153 -67 -401 -191 -530 -264 -287
-166 -633 -428 -778 -592 l-37 -41 173 -78 c846 -383 1942 -979 2867 -1558
970 -608 2404 -1629 3698 -2634 122 -95 225 -173 228 -173 10 0 255 194 374
296 297 256 453 421 846 894 385 465 377 454 414 525 36 68 38 120 15 284 -77
524 -351 1101 -821 1728 -312 415 -545 661 -860 909 -518 408 -1222 751 -1916
935 l-128 34 0 38 c0 22 5 93 11 159 13 132 4 189 -31 208 -17 9 -27 4 -66
-32 -44 -41 -47 -42 -60 -23 -29 40 -8 289 32 366 7 14 31 42 54 63 40 36 48
66 18 66 -7 0 -53 -21 -103 -47z"/>
<path d="M815 9128 c-74 -162 -189 -535 -255 -829 -155 -696 -197 -1406 -120
-2027 79 -633 219 -1129 447 -1582 40 -80 73 -147 73 -149 0 -2 -31 -1 -68 1
-80 6 -113 24 -137 76 -25 52 -44 72 -72 72 -40 0 -59 -16 -82 -69 -34 -79
-102 -113 -224 -112 -125 1 -194 21 -284 82 -85 59 -117 27 -55 -54 23 -29 46
-73 53 -97 13 -50 4 -96 -42 -217 -20 -52 -22 -64 -10 -75 11 -11 17 -8 35 17
53 75 90 102 172 128 108 34 199 50 245 42 22 -4 39 -9 39 -11 0 -3 -16 -27
-35 -55 -19 -28 -35 -55 -35 -60 0 -17 46 -39 85 -39 22 0 90 12 150 25 198
46 278 46 295 0 13 -34 45 -44 105 -34 107 17 100 21 209 -116 317 -402 869
-876 1361 -1170 749 -449 1878 -799 3029 -940 234 -29 281 -30 354 -11 136 36
258 113 401 251 223 216 372 458 585 953 185 430 270 590 431 817 123 173 165
243 246 410 57 118 149 361 149 394 0 27 -778 630 -1480 1148 -1224 901 -2227
1569 -3280 2183 -971 566 -2072 1120 -2225 1120 -23 0 -31 -9 -60 -72z"/>
<path d="M10785 6767 c-2 -6 -6 -35 -9 -64 -7 -72 -26 -104 -120 -198 -71 -73
-145 -125 -175 -125 -6 0 -11 30 -13 68 -3 64 -4 67 -30 70 -40 5 -76 -19
-199 -129 -74 -65 -118 -99 -128 -95 -9 3 -49 17 -89 31 -157 53 -296 58 -395
12 -55 -25 -330 -227 -457 -335 -97 -83 -137 -125 -348 -372 -229 -268 -350
-386 -660 -644 l-257 -214 -28 -84 c-35 -103 -163 -369 -242 -503 -32 -55
-126 -206 -208 -335 -136 -214 -153 -247 -197 -370 -139 -394 -250 -622 -460
-944 -138 -212 -175 -283 -200 -380 -43 -170 -34 -266 39 -401 37 -68 38 -74
44 -201 8 -163 20 -205 65 -218 53 -15 63 -47 73 -235 15 -277 42 -324 128
-224 46 53 52 52 72 -22 15 -53 8 -302 -10 -333 -7 -13 -28 -41 -48 -63 -34
-37 -37 -59 -7 -59 8 0 50 24 92 53 121 83 167 88 290 36 39 -17 47 -18 60 -6
19 20 5 44 -58 97 -89 75 -158 252 -144 370 6 50 11 59 60 105 43 40 54 57 54
81 0 37 -24 61 -71 70 -53 11 -87 32 -105 66 -16 31 -16 31 8 24 12 -3 85 -11
161 -18 130 -10 408 -2 623 19 l60 5 13 -43 c18 -61 75 -182 92 -196 8 -6 32
-13 54 -15 35 -3 43 -8 68 -50 16 -26 51 -109 78 -184 53 -149 86 -204 123
-204 24 0 37 20 66 94 10 28 11 28 31 11 47 -44 119 -247 119 -339 0 -23 -11
-64 -24 -93 -13 -28 -22 -54 -18 -57 18 -18 45 1 92 64 87 117 140 145 254
134 51 -5 70 -4 76 6 15 24 -2 42 -78 78 -115 54 -207 159 -244 274 -25 81
-23 96 17 158 42 65 43 83 10 116 -23 23 -31 25 -79 19 -101 -13 -165 51 -235
234 l-19 50 37 7 c112 18 322 77 386 107 144 69 186 132 205 307 22 204 64
335 140 436 21 28 116 114 217 195 202 163 354 309 435 419 89 118 191 294
334 572 72 142 163 304 200 360 118 175 174 226 424 382 89 55 98 78 77 203
-11 71 -12 100 -4 105 6 3 47 12 92 19 138 20 194 -3 247 -100 32 -58 117 -34
131 37 8 42 45 82 96 105 38 18 65 21 163 21 l117 0 95 -48 c128 -66 163 -52
89 36 -79 94 -86 144 -39 293 12 39 20 78 18 88 -6 29 -30 19 -51 -20 -10 -21
-32 -50 -48 -65 -71 -66 -323 -140 -372 -109 -12 8 -8 18 18 60 27 41 30 53
21 70 -17 33 -102 28 -245 -13 -203 -58 -253 -59 -281 -5 -16 31 -16 32 -77
25 l-62 -6 -23 98 c-33 135 -105 363 -161 511 -42 109 -50 142 -60 247 -6 67
-22 165 -36 220 -14 54 -25 101 -25 103 0 2 11 -6 24 -19 34 -31 74 -29 103 4
20 23 22 34 17 84 -8 70 6 101 65 155 42 38 87 63 173 98 42 17 76 22 158 23
100 1 105 2 108 23 3 18 -8 27 -71 56 -100 46 -127 86 -147 222 -6 39 -13 77
-16 87 -6 21 -34 32 -39 15z"/>
<path d="M10468 3881 c-31 -10 -55 -35 -131 -136 -68 -89 -154 -241 -303 -531
-164 -319 -168 -325 -377 -561 -124 -140 -221 -229 -327 -300 -123 -83 -215
-186 -267 -300 -23 -49 -25 -64 -19 -127 12 -145 21 -162 158 -309 68 -72 145
-158 173 -191 52 -61 129 -125 205 -169 64 -37 280 -80 380 -75 72 3 81 6 225
84 83 45 186 98 231 118 l81 36 149 -1 c243 -1 306 23 451 175 116 122 217
259 275 374 42 83 42 85 41 185 0 80 -7 129 -32 224 -17 68 -31 133 -31 146 0
13 18 42 42 67 51 55 94 144 113 236 19 89 19 157 -1 251 -40 193 -96 268
-356 476 -81 64 -170 143 -198 176 -59 68 -116 101 -220 130 -85 24 -221 35
-262 22z"/>
<path d="M12480 3385 c-260 -69 -325 -93 -448 -165 -126 -75 -199 -142 -272
-249 -32 -48 -108 -144 -169 -216 -190 -221 -225 -274 -188 -288 23 -9 88 27
192 105 136 103 235 197 305 288 145 190 286 261 473 237 151 -19 236 -15 291
13 94 48 145 136 132 230 -8 62 -34 95 -77 97 -19 1 -126 -23 -239 -52z"/>
<path d="M10377 1326 c-162 -93 -470 -317 -644 -468 -116 -101 -257 -289 -328
-440 -42 -87 -75 -233 -75 -330 0 -85 11 -93 112 -83 88 9 119 34 149 120 20
56 20 66 9 147 -29 200 25 325 203 475 50 42 137 118 192 167 55 49 172 148
260 219 180 147 257 216 249 229 -11 18 -52 6 -127 -36z"/>
</g>
</svg>
