<?xml version="1.0" standalone="no"?>
<!DOCTYPE svg PUBLIC "-//W3C//DTD SVG 20010904//EN"
 "http://www.w3.org/TR/2001/REC-SVG-20010904/DTD/svg10.dtd">
<svg version="1.0" xmlns="http://www.w3.org/2000/svg"
 width="1280.000000pt" height="984.000000pt" viewBox="0 0 1280.000000 984.000000"
 preserveAspectRatio="xMidYMid meet">
<metadata>
Created by potrace 1.15, written by Peter Selinger 2001-2017
</metadata>
<g transform="translate(0.000000,984.000000) scale(0.100000,-0.100000)"
fill="#000000" stroke="none">
<path d="M9810 9778 c0 -24 16 -299 35 -613 34 -546 92 -1507 97 -1609 l3 -48
-90 -39 c-170 -73 -262 -153 -373 -327 -38 -58 -51 -71 -67 -67 -11 3 -43 8
-71 11 l-50 6 -487 974 c-391 782 -490 972 -503 967 -8 -3 -14 -13 -11 -22 7
-24 379 -951 582 -1451 98 -239 180 -443 183 -453 4 -15 0 -18 -16 -15 -15 2
-209 287 -720 1058 -387 584 -706 1056 -715 1058 -10 2 -17 -2 -17 -8 0 -6
291 -511 646 -1120 l645 -1109 -39 -83 c-45 -94 -84 -220 -108 -353 -21 -120
-18 -113 -56 -119 -18 -2 -91 -14 -161 -25 -128 -21 -129 -21 -145 -1 -443
529 -578 689 -582 689 -41 3 33 -132 416 -761 3 -4 -13 -16 -35 -27 l-39 -20
-988 610 c-558 344 -994 607 -1002 604 -7 -3 -12 -9 -10 -15 2 -5 426 -299
943 -653 573 -392 939 -649 938 -658 -1 -8 -14 -46 -27 -85 -40 -111 -57 -247
-58 -445 l0 -177 -38 -11 c-21 -6 -104 -44 -184 -85 l-147 -73 -452 311
c-1319 908 -1571 1081 -1577 1079 -31 -11 79 -99 942 -753 524 -398 955 -724
957 -726 2 -2 -14 -26 -34 -55 -72 -97 -116 -277 -131 -525 l-7 -121 -121 -81
c-66 -44 -152 -103 -190 -131 -67 -51 -69 -52 -89 -34 -11 10 -409 388 -886
841 -476 452 -870 821 -875 819 -5 -2 -11 -8 -13 -13 -2 -5 370 -407 827 -893
456 -485 830 -885 830 -888 0 -3 -45 -52 -99 -108 -98 -102 -158 -181 -199
-260 -20 -39 -22 -41 -167 -88 -81 -26 -149 -46 -150 -45 -1 2 -113 188 -247
414 l-245 411 -7 409 c-7 396 -11 444 -38 416 -3 -4 -20 -142 -38 -307 -17
-165 -39 -376 -50 -468 l-18 -168 253 -382 252 -382 -89 -45 c-49 -25 -118
-67 -153 -93 -66 -49 -72 -50 -111 -15 -19 17 -22 17 -34 3 -11 -13 -9 -20 13
-43 l26 -27 -72 -76 -72 -77 -97 5 c-84 5 -98 8 -98 23 0 21 107 1313 115
1388 5 47 3 52 -15 52 -11 0 -20 -6 -20 -13 0 -17 -104 -796 -136 -1017 -40
-285 -55 -375 -63 -383 -4 -4 -54 17 -112 46 -57 30 -130 60 -161 67 -51 12
-59 17 -67 44 -9 29 -271 893 -412 1361 -93 306 -89 297 -107 292 -10 -2 -16
-7 -16 -13 2 -9 128 -547 310 -1323 l104 -445 -16 -50 c-22 -66 -59 -100 -137
-125 -75 -24 -253 -46 -270 -33 -105 79 -287 226 -287 232 0 4 33 135 74 291
178 680 178 682 164 690 -7 5 -16 5 -19 1 -6 -7 -369 -991 -411 -1115 l-20
-58 -82 7 c-44 3 -99 9 -120 13 l-40 6 -18 75 c-26 104 -237 909 -356 1354
-55 204 -104 372 -110 374 -7 2 -14 -3 -17 -10 -3 -8 57 -406 135 -885 77
-479 140 -876 140 -881 0 -5 -51 -12 -112 -15 -107 -6 -214 -29 -302 -63 l-38
-15 -117 112 c-64 62 -128 124 -144 139 l-27 26 35 289 c19 160 46 382 60 495
14 113 27 217 29 232 4 18 0 28 -11 32 -9 4 -17 5 -19 4 -1 -2 -46 -214 -99
-473 -53 -258 -97 -470 -98 -472 -1 -1 -45 38 -97 87 -69 64 -98 85 -107 78
-14 -11 -17 -6 115 -162 l74 -86 -32 -152 c-17 -84 -32 -154 -33 -155 -1 -1
-53 2 -115 5 l-113 7 -352 807 c-194 444 -354 807 -357 808 -33 1 -26 -28 84
-316 331 -868 496 -1307 494 -1309 -2 -2 -34 -10 -73 -18 -128 -29 -255 -81
-342 -140 l-52 -35 -208 130 -209 130 -179 353 c-124 242 -184 351 -193 347
-19 -7 -16 -16 111 -325 63 -152 112 -277 110 -277 -3 0 -31 16 -63 36 -53 33
-80 37 -80 14 0 -5 38 -36 83 -69 46 -33 89 -67 96 -75 7 -8 39 -79 71 -158
l59 -143 -92 -12 c-51 -7 -100 -14 -109 -15 -10 -2 -127 105 -311 284 -236
230 -297 285 -306 274 -9 -11 39 -76 227 -308 131 -162 242 -300 246 -306 4
-8 -9 -31 -34 -59 -22 -26 -59 -84 -82 -130 -23 -46 -44 -83 -47 -83 -3 0
-133 27 -289 60 -156 33 -290 60 -298 60 -9 0 -14 -7 -12 -16 2 -12 83 -44
278 -110 151 -52 280 -96 286 -98 7 -3 5 -26 -7 -73 -10 -37 -18 -82 -18 -100
-1 -28 -8 -36 -48 -59 -224 -129 -394 -269 -456 -375 -88 -150 -121 -393 -92
-683 12 -120 16 -210 11 -279 -20 -312 -19 -358 4 -422 18 -48 39 -76 105
-142 70 -69 98 -89 186 -131 151 -73 251 -96 424 -96 127 -1 147 2 213 26 103
37 197 96 285 178 173 162 267 344 267 519 l0 58 102 6 c180 11 268 47 330
133 l33 46 115 -6 c151 -9 269 5 410 47 104 32 119 40 153 78 l38 42 -19 -44
c-11 -24 -108 -245 -216 -492 -108 -246 -194 -452 -191 -457 3 -6 11 -10 16
-10 5 0 215 165 466 368 251 202 465 373 474 380 15 10 20 7 41 -30 30 -55 88
-89 148 -86 40 1 62 -8 188 -82 104 -60 142 -87 137 -97 -3 -9 -48 -85 -101
-169 -90 -145 -110 -196 -70 -181 8 3 96 60 196 127 l181 121 152 -87 c84 -48
155 -89 158 -90 4 -2 12 2 17 9 9 10 -11 44 -79 141 -49 71 -88 130 -87 131 2
1 44 30 95 64 l92 61 78 0 78 0 443 -291 c415 -272 487 -312 468 -264 -3 8
-102 191 -221 406 l-215 392 39 67 c54 90 110 140 206 179 77 33 263 83 351
97 l43 6 3 -68 3 -68 33 49 c27 40 32 44 28 23 -23 -105 -216 -1132 -214
-1138 2 -4 147 145 323 331 l320 338 7 -37 c7 -36 243 -720 252 -729 7 -7 7
-4 117 552 l103 520 46 42 c26 23 80 90 121 149 98 143 221 266 681 682 l26
24 234 -110 233 -109 5 59 5 60 415 -365 c228 -202 415 -365 416 -364 2 1 -89
261 -202 576 -112 316 -204 576 -204 578 0 2 43 0 96 -3 l97 -7 -7 254 c-7
232 -3 355 20 629 l6 75 72 29 c303 123 578 299 668 427 55 77 75 193 62 360
-6 79 -5 156 3 240 6 68 12 136 12 151 1 22 7 29 29 34 207 44 325 116 353
213 8 25 14 90 14 144 0 53 1 97 2 97 1 0 28 -16 59 -36 100 -64 203 -108 264
-112 68 -5 117 16 126 53 3 14 7 25 8 25 0 0 296 -134 656 -298 627 -286 680
-307 680 -271 0 4 -188 139 -417 300 -702 491 -688 480 -669 491 33 19 38 55
16 133 -11 40 -18 80 -14 89 10 26 50 30 140 12 95 -19 136 -10 142 32 2 12 8
22 13 22 9 0 173 -69 803 -337 118 -50 156 -59 156 -34 0 5 -151 154 -335 332
-184 178 -335 326 -335 329 0 5 31 13 330 81 l175 40 235 -3 c228 -2 237 -2
287 21 63 28 128 95 142 147 16 58 13 113 -13 268 -15 88 -26 201 -30 301 -3
96 -11 184 -21 219 -21 80 -75 179 -135 249 -28 32 -48 63 -45 67 3 5 20 12
38 15 132 29 396 238 417 331 5 21 10 100 10 174 l1 135 170 125 c93 69 176
130 185 137 11 8 13 17 7 27 -7 13 -39 -2 -198 -94 l-190 -109 -42 42 c-24 22
-40 44 -35 48 9 8 359 269 391 291 20 14 22 20 12 32 -10 12 -51 -9 -263 -130
-207 -120 -255 -143 -274 -137 -23 8 -17 17 125 195 129 160 148 188 135 199
-13 11 -44 -16 -207 -179 l-192 -192 -47 0 c-25 0 -79 -12 -120 -26 -104 -37
-111 -38 -130 -17 -15 17 -7 27 138 177 125 129 152 162 142 172 -10 10 -49
-16 -196 -133 -101 -80 -186 -143 -189 -140 -3 3 50 110 117 238 92 175 119
234 109 240 -7 4 -16 6 -19 4 -3 -2 -73 -101 -154 -219 -135 -196 -152 -216
-178 -216 -34 0 -34 -11 -3 205 13 93 21 173 19 177 -17 27 -33 -6 -68 -139
-64 -252 -64 -250 -94 -258 -44 -11 -93 -45 -170 -119 -98 -94 -165 -179 -202
-257 -26 -54 -30 -75 -29 -129 l2 -65 -84 3 c-46 2 -106 9 -134 16 -50 13
-224 82 -237 94 -6 6 -33 826 -54 1635 -7 235 -9 257 -25 257 -21 0 -19 26
-69 -650 -22 -294 -52 -686 -65 -870 -14 -184 -28 -341 -30 -347 -2 -7 -17
-13 -33 -13 l-29 0 -182 1098 c-100 603 -185 1105 -187 1115 -3 9 -12 17 -20
17 -10 0 -14 -12 -14 -42z m-7108 -6685 c37 -43 67 -81 68 -86 0 -4 -14 -20
-32 -36 l-33 -29 -75 30 c-41 16 -76 31 -78 33 -3 3 16 166 24 205 l6 25 26
-32 c15 -17 57 -67 94 -110z m1464 -41 c-4 -3 -207 25 -211 30 -1 2 7 36 18
76 l20 73 88 -87 c49 -49 87 -90 85 -92z m-2793 -161 c70 -52 126 -95 125 -96
-2 -1 -43 3 -92 9 l-88 11 -45 89 c-24 48 -40 86 -35 85 4 -2 65 -46 135 -98z"/>
</g>
</svg>
