<?xml version="1.0" standalone="no"?>
<!DOCTYPE svg PUBLIC "-//W3C//DTD SVG 20010904//EN"
 "http://www.w3.org/TR/2001/REC-SVG-20010904/DTD/svg10.dtd">
<svg version="1.0" xmlns="http://www.w3.org/2000/svg"
 width="906.000000pt" height="1280.000000pt" viewBox="0 0 906.000000 1280.000000"
 preserveAspectRatio="xMidYMid meet">
<metadata>
Created by potrace 1.15, written by Peter Selinger 2001-2017
</metadata>
<g transform="translate(0.000000,1280.000000) scale(0.100000,-0.100000)"
fill="#000000" stroke="none">
<path d="M1152 12290 c-60 -13 -139 -58 -173 -99 -84 -102 -51 -291 84 -493
31 -46 84 -112 119 -148 34 -36 63 -70 63 -76 0 -6 36 -39 80 -75 70 -56 80
-68 77 -93 -3 -25 -2 -27 16 -17 18 9 26 4 61 -38 23 -27 41 -56 41 -64 0 -8
7 -17 15 -20 26 -10 67 -87 61 -113 -5 -19 -2 -24 12 -24 11 0 25 -14 35 -34
15 -32 15 -35 -4 -52 -27 -25 -24 -37 10 -31 28 6 29 5 50 -68 21 -70 21 -75
5 -99 -16 -25 -15 -26 4 -26 33 0 34 -58 2 -90 l-25 -25 33 -3 32 -3 0 -63 c0
-89 -8 -123 -32 -129 -22 -6 -16 -27 8 -27 10 0 14 -6 10 -17 -2 -10 -8 -37
-11 -60 -4 -24 -10 -45 -14 -48 -5 -2 -8 -18 -9 -34 0 -16 -6 -40 -13 -53 -7
-13 -13 -30 -14 -38 -3 -36 -39 -110 -56 -115 -21 -7 -25 -21 -8 -27 34 -11
-325 -602 -377 -622 -9 -4 -14 -9 -11 -13 10 -10 -33 -64 -59 -73 -15 -6 -22
-15 -18 -24 3 -8 -2 -26 -12 -40 -14 -23 -21 -26 -50 -20 -38 7 -42 0 -18 -28
16 -16 15 -20 -7 -53 -16 -23 -29 -33 -39 -29 -52 21 -67 9 -34 -28 16 -16 15
-21 -17 -66 -32 -46 -35 -49 -62 -40 -36 13 -42 6 -19 -23 19 -23 19 -23 -26
-91 -26 -37 -52 -68 -59 -68 -7 0 -13 -9 -13 -20 0 -32 -72 -136 -92 -132 -19
4 -25 -13 -8 -23 5 -3 -6 -33 -26 -68 -77 -135 -177 -357 -224 -496 -146 -438
-156 -864 -29 -1263 36 -111 126 -302 191 -403 24 -38 46 -73 47 -77 7 -17 85
-102 182 -199 216 -214 475 -350 799 -421 91 -19 134 -22 320 -23 189 0 228 3
320 24 381 84 694 265 951 548 34 37 69 78 77 91 9 14 21 21 30 17 10 -3 12 0
8 10 -8 21 73 135 96 135 10 0 18 5 18 10 0 6 -5 10 -11 10 -14 0 57 125 73
126 7 1 17 2 22 3 5 0 3 7 -3 15 -10 11 -8 23 7 53 59 115 170 399 211 539 13
45 28 74 38 79 13 4 14 8 5 14 -9 5 -7 24 8 77 11 38 25 71 30 72 6 2 7 8 4
13 -8 13 26 141 40 154 6 6 12 26 13 45 1 19 7 49 14 65 6 17 13 40 15 52 5
44 59 198 71 206 7 4 10 14 7 22 -17 43 210 525 247 525 5 0 9 6 9 13 0 18
126 166 148 175 10 3 25 16 34 27 51 65 268 186 431 240 162 54 266 69 472 69
200 0 326 -18 512 -74 398 -118 814 -396 1155 -772 l75 -83 -14 -80 c-17 -93
-12 -227 12 -354 27 -140 80 -301 205 -616 65 -165 154 -401 199 -525 135
-382 198 -513 313 -652 l39 -46 -16 -77 c-50 -238 -193 -519 -365 -715 -176
-199 -440 -382 -750 -518 -335 -148 -673 -240 -1320 -362 -658 -123 -792 -151
-1055 -220 -288 -74 -522 -159 -760 -275 -646 -315 -1075 -800 -1221 -1378
-14 -56 -28 -109 -31 -117 -3 -8 -5 -19 -4 -24 1 -4 -3 -43 -9 -87 -16 -117
-14 -378 5 -491 50 -307 157 -571 331 -812 64 -88 215 -257 228 -254 6 1 30
-8 54 -20 177 -93 401 -7 490 186 38 83 43 206 12 302 -18 57 -34 83 -89 142
-36 40 -83 99 -104 131 -46 70 -117 217 -117 244 0 10 -4 23 -9 29 -6 5 -12
20 -15 34 -2 14 -12 63 -21 110 -36 181 -3 437 78 613 216 467 728 786 1568
976 162 37 449 94 784 156 790 147 1208 269 1640 480 282 138 495 279 705 467
469 419 750 1031 790 1718 5 97 15 170 30 220 27 96 30 258 6 383 -23 123 -89
314 -197 577 -50 124 -143 376 -205 560 -158 472 -220 604 -339 725 -78 79
-138 108 -234 113 l-74 4 -166 167 c-501 505 -1033 810 -1621 931 -346 71
-737 65 -1055 -16 -244 -62 -441 -148 -641 -280 -356 -234 -582 -518 -778
-976 -64 -151 -131 -357 -236 -722 -130 -454 -178 -593 -269 -775 -190 -377
-495 -597 -856 -618 -516 -29 -907 373 -906 933 0 301 90 580 293 904 58 92
61 96 91 92 l31 -5 -17 26 c-17 26 -17 28 19 78 27 37 42 49 55 46 16 -4 18
-1 13 18 -7 29 42 104 68 105 11 0 15 5 12 14 -3 8 16 44 42 80 35 49 54 66
71 66 24 0 29 9 14 25 -6 6 8 34 36 73 37 52 50 62 74 62 32 0 37 11 15 29
-12 10 -6 24 37 86 29 41 59 74 68 75 22 0 31 11 19 25 -14 17 74 145 100 145
22 0 26 10 9 27 -16 16 61 137 89 141 24 4 29 20 9 28 -21 8 66 175 99 192 22
12 24 15 11 25 -24 19 17 117 55 131 33 12 36 22 9 31 -19 6 -19 7 1 68 12 34
28 66 36 71 9 5 11 11 4 15 -7 4 -7 21 1 55 9 41 16 51 44 62 40 17 41 22 7
34 -24 9 -25 13 -19 57 10 79 13 88 36 98 28 13 30 29 3 33 -20 3 -21 7 -17
70 4 52 10 71 27 84 l21 18 -22 6 c-19 5 -22 14 -25 81 l-3 75 37 19 c55 28
56 39 4 39 -39 0 -46 3 -50 23 -2 12 -9 54 -16 92 -14 80 -44 201 -67 262 -8
23 -12 47 -8 53 4 6 0 17 -8 23 -21 16 -77 156 -66 163 15 9 10 24 -8 24 -27
1 -116 161 -108 193 6 21 3 24 -17 21 -19 -3 -32 9 -70 62 -48 65 -57 88 -38
99 6 3 10 13 10 22 0 10 -5 13 -17 8 -40 -17 -49 -13 -86 30 -33 38 -36 47
-27 66 15 26 8 34 -19 20 -18 -10 -35 0 -138 84 -65 52 -123 93 -129 91 -7 -3
-25 9 -40 26 -48 49 -190 139 -262 163 -79 28 -170 37 -230 25z"/>
</g>
</svg>
